<?xml version="1.0" encoding="iso-8859-1"?>
<!-- Uploaded to: SVG Repo, www.svgrepo.com, Generator: SVG Repo Mixer Tools -->
<!DOCTYPE svg PUBLIC "-//W3C//DTD SVG 1.1//EN" "http://www.w3.org/Graphics/SVG/1.1/DTD/svg11.dtd">
<svg height="800px" width="800px" version="1.1" id="Capa_1" xmlns="http://www.w3.org/2000/svg" xmlns:xlink="http://www.w3.org/1999/xlink" 
	 viewBox="0 0 483.753 483.753" xml:space="preserve">
<g>
	<path style="fill:#9c110d;" d="M74.642,360.833h334.454c19.807,0,35.907-16.11,35.907-35.915V97.957
		c0-19.807-16.101-35.916-35.907-35.916H74.642c-19.806,0-35.908,16.108-35.908,35.916v226.961
		C38.733,344.724,54.836,360.833,74.642,360.833z M72.009,97.957c0-1.455,1.187-2.641,2.633-2.641h334.454
		c1.447,0,2.632,1.186,2.632,2.641v226.961c0,1.454-1.185,2.64-2.632,2.64H74.642c-1.446,0-2.633-1.186-2.633-2.64V97.957z"/>
	<path style="fill:#9c110d;" d="M470.69,374.448H13.063C5.849,374.448,0,380.29,0,387.503c0,18.896,15.322,34.208,34.2,34.208
		h415.353c18.878,0,34.2-15.313,34.2-34.208C483.753,380.29,477.905,374.448,470.69,374.448z"/>
	<path style="fill:#9c110d;" d="M105.154,135.504h127.9c4.599,0,8.318-3.72,8.318-8.319c0-4.599-3.72-8.319-8.318-8.319h-127.9
		c-4.599,0-8.319,3.72-8.319,8.319C96.835,131.784,100.556,135.504,105.154,135.504z"/>
	<path style="fill:#9c110d;" d="M105.154,168.779h127.9c4.599,0,8.318-3.72,8.318-8.319c0-4.599-3.72-8.319-8.318-8.319h-127.9
		c-4.599,0-8.319,3.72-8.319,8.319C96.835,165.059,100.556,168.779,105.154,168.779z"/>
	<path style="fill:#9c110d;" d="M105.154,202.054h127.9c4.599,0,8.318-3.72,8.318-8.319c0-4.599-3.72-8.319-8.318-8.319h-127.9
		c-4.599,0-8.319,3.72-8.319,8.319C96.835,198.334,100.556,202.054,105.154,202.054z"/>
	<path style="fill:#9c110d;" d="M378.584,220.876H208.099c-4.599,0-8.319,3.722-8.319,8.319c0,4.599,3.721,8.319,8.319,8.319
		h170.485c4.597,0,8.319-3.72,8.319-8.319C386.903,224.598,383.181,220.876,378.584,220.876z"/>
	<path style="fill:#9c110d;" d="M378.584,254.151H208.099c-4.599,0-8.319,3.722-8.319,8.319c0,4.599,3.721,8.319,8.319,8.319
		h170.485c4.597,0,8.319-3.72,8.319-8.319C386.903,257.873,383.181,254.151,378.584,254.151z"/>
	<path style="fill:#9c110d;" d="M378.584,287.426H208.099c-4.599,0-8.319,3.722-8.319,8.319c0,4.599,3.721,8.319,8.319,8.319
		h170.485c4.597,0,8.319-3.72,8.319-8.319C386.903,291.148,383.181,287.426,378.584,287.426z"/>
	<path style="fill:#9c110d;" d="M267.499,202.054h108.826c4.598,0,8.318-3.72,8.318-8.319v-66.55c0-4.599-3.721-8.319-8.318-8.319
		H267.499c-4.599,0-8.318,3.72-8.318,8.319v66.55C259.181,198.334,262.9,202.054,267.499,202.054z M275.817,135.504h92.188v49.912
		h-92.188V135.504z"/>
	<path style="fill:#9c110d;" d="M105.154,304.064h63.949c4.599,0,8.319-3.72,8.319-8.319v-66.55c0-4.597-3.721-8.319-8.319-8.319
		h-63.949c-4.599,0-8.319,3.722-8.319,8.319v66.55C96.835,300.343,100.556,304.064,105.154,304.064z"/>
</g>
</svg>