<svg width="41" height="40" viewBox="0 0 41 40" fill="none" xmlns="http://www.w3.org/2000/svg">
<path d="M27.1663 13.3335C29.8185 13.3335 32.362 14.3871 34.2374 16.2624C36.1128 18.1378 37.1663 20.6813 37.1663 23.3335V35.0002H30.4997V23.3335C30.4997 22.4494 30.1485 21.6016 29.5234 20.9765C28.8982 20.3514 28.0504 20.0002 27.1663 20.0002C26.2823 20.0002 25.4344 20.3514 24.8093 20.9765C24.1842 21.6016 23.833 22.4494 23.833 23.3335V35.0002H17.1663V23.3335C17.1663 20.6813 18.2199 18.1378 20.0953 16.2624C21.9706 14.3871 24.5142 13.3335 27.1663 13.3335ZM3.83301 15.0002H10.4997V35.0002H3.83301V15.0002Z" stroke="#232946" stroke-width="3.33333" stroke-linecap="round" stroke-linejoin="round"/>
<path d="M7.16634 10.0002C9.00729 10.0002 10.4997 8.50778 10.4997 6.66683C10.4997 4.82588 9.00729 3.3335 7.16634 3.3335C5.32539 3.3335 3.83301 4.82588 3.83301 6.66683C3.83301 8.50778 5.32539 10.0002 7.16634 10.0002Z" stroke="#232946" stroke-width="3.33333" stroke-linecap="round" stroke-linejoin="round"/>
</svg>
